<?xml version="1.0" encoding="UTF-8"?>
<!DOCTYPE svg PUBLIC "-//W3C//DTD SVG 1.1//EN" "http://www.w3.org/Graphics/SVG/1.1/DTD/svg11.dtd">
<svg xmlns="http://www.w3.org/2000/svg" version="1.1" width="293px" height="314px" style="shape-rendering:geometricPrecision; text-rendering:geometricPrecision; image-rendering:optimizeQuality; fill-rule:evenodd; clip-rule:evenodd" xmlns:xlink="http://www.w3.org/1999/xlink">
<g><path style="opacity:0.968" fill="#000000" d="M 125.5,35.5 C 135.246,43.7417 144.579,52.575 153.5,62C 141.333,74.1667 129.167,86.3333 117,98.5C 107.986,89.6525 99.1522,80.6525 90.5,71.5C 102.188,59.4793 113.855,47.4793 125.5,35.5 Z"/></g>
<g><path style="opacity:0.973" fill="#000000" d="M 63.5,97.5 C 73.2459,105.742 82.5792,114.575 91.5,124C 67.6008,150.271 64.1008,179.105 81,210.5C 100.513,237.675 126.679,247.508 159.5,240C 170.763,236.706 180.43,230.873 188.5,222.5C 197.486,230.986 206.319,239.652 215,248.5C 214.805,250.745 213.638,252.578 211.5,254C 174.023,283.749 133.356,288.749 89.5,269C 53.1305,247.953 34.1305,216.287 32.5,174C 32.5887,144.21 42.922,118.71 63.5,97.5 Z"/></g>
<g><path style="opacity:0.991" fill="#44ba6a" d="M 187.5,98.5 C 213.763,123.095 239.429,148.428 264.5,174.5C 255.848,183.652 247.014,192.652 238,201.5C 221.653,184.986 205.153,168.653 188.5,152.5C 171.847,168.653 155.347,184.986 139,201.5C 129.986,192.652 121.152,183.652 112.5,174.5C 137.521,149.146 162.521,123.812 187.5,98.5 Z"/></g>
</svg>
