<?xml version="1.0" encoding="UTF-8"?>
<!-- Generator: visioncortex VTracer 0.6.3 -->
<svg version="1.1" xmlns="http://www.w3.org/2000/svg" width="1367" height="325">
<path d="M0 0 C4.01 1.6 6.68 4.42 9.64 7.45 C10.43 8.24 10.43 8.24 11.24 9.05 C12.91 10.74 14.58 12.43 16.25 14.12 C17.39 15.27 18.53 16.42 19.66 17.57 C22.45 20.37 25.23 23.18 28 26 C27.61 26.52 27.22 27.03 26.81 27.57 C19.53 37.22 13.81 46.44 10 58 C9.75 58.72 9.5 59.45 9.25 60.19 C4.56 76.85 8.43 95.76 16.59 110.62 C25.16 125.16 38.13 135.41 54 141 C54.8 141.32 55.6 141.64 56.43 141.97 C72.82 147.62 91.97 144.62 107.19 137.31 C113.63 134.07 118.99 130.24 124 125 C128.01 126.6 130.68 129.42 133.64 132.45 C134.17 132.98 134.69 133.51 135.24 134.05 C136.91 135.74 138.58 137.43 140.25 139.12 C141.39 140.27 142.53 141.42 143.66 142.57 C146.45 145.37 149.23 148.18 152 151 C146.25 163.38 127.09 172.35 114.8 177.03 C112.88 177.72 110.95 178.37 109 179 C108.36 179.21 107.73 179.42 107.07 179.64 C82.11 187.48 52.85 184.69 29.25 173.71 C3.27 160.05 -16.37 138.99 -26 111 C-35.01 81.07 -32.46 51.06 -18.19 23.31 C-13.29 14.7 -7.28 6.72 0 0 Z " fill="#000000" transform="translate(68,99)"/>
<path d="M0 0 C10.48 -0.06 20.96 -0.12 31.75 -0.19 C35.03 -0.21 38.32 -0.24 41.7 -0.27 C44.34 -0.28 46.97 -0.29 49.61 -0.29 C50.61 -0.3 50.61 -0.3 51.63 -0.32 C66.97 -0.49 80.8 2.02 92.38 12.75 C100.96 21.97 103.53 33.06 103.31 45.34 C102.37 56.53 98.32 65.49 89.84 72.88 C84.56 77 84.56 77 82 77 C87.71 86.04 93.63 94.92 99.74 103.69 C100.28 104.47 100.82 105.24 101.38 106.04 C101.86 106.73 102.34 107.43 102.84 108.14 C104 110 104 110 105 113 C100.02 113.3 95.05 113.52 90.06 113.66 C88.37 113.72 86.67 113.8 84.98 113.91 C73.83 114.58 73.83 114.58 69 113 C65.11 109.55 63.2 105.65 61 101 C59.97 99.44 58.91 97.91 57.81 96.4 C57.34 95.72 56.87 95.05 56.39 94.36 C55.43 92.99 54.48 91.63 53.52 90.28 C50 85.22 50 85.22 50 83 C44.39 83 38.78 83 33 83 C33 92.9 33 102.8 33 113 C22.11 113 11.22 113 0 113 C0 75.71 0 38.42 0 0 Z M33 26 C33 36.56 33 47.12 33 58 C36.47 58.06 39.93 58.12 43.5 58.19 C44.58 58.21 45.65 58.24 46.76 58.27 C54.21 58.33 59.9 57.5 65.88 52.69 C69.26 48.41 70.24 44.89 69.94 39.5 C69.25 34.8 67.55 32.24 64 29 C57.64 25.38 51.74 25.65 44.56 25.81 C40.75 25.87 36.93 25.94 33 26 Z " fill="#000000" transform="translate(496,103)"/>
<path d="M0 0 C10.89 0 21.78 0 33 0 C33.33 14.52 33.66 29.04 34 44 C37.96 39.71 41.92 35.42 46 31 C48.29 28.54 50.58 26.08 52.88 23.62 C54.04 22.38 55.21 21.13 56.38 19.88 C56.97 19.25 57.55 18.62 58.16 17.97 C60.1 15.9 62.03 13.82 63.96 11.75 C64.61 11.06 65.25 10.37 65.92 9.66 C67.16 8.32 68.4 6.99 69.65 5.66 C73.89 1.11 73.89 1.11 75 0 C77.74 -0.09 80.45 -0.12 83.19 -0.1 C84.01 -0.1 84.83 -0.09 85.68 -0.09 C88.3 -0.09 90.93 -0.08 93.56 -0.06 C95.34 -0.06 97.12 -0.05 98.9 -0.05 C103.26 -0.04 107.63 -0.02 112 0 C104.33 8.98 96.38 17.69 88.31 26.31 C84.51 30.38 80.71 34.46 76.94 38.56 C76.1 39.47 75.26 40.38 74.4 41.32 C71.86 44.16 69.42 47.06 67 50 C67.33 50.44 67.66 50.88 68 51.33 C68.71 52.28 68.71 52.28 69.44 53.25 C70.26 54.35 70.26 54.35 71.11 55.47 C72.42 57.23 73.74 58.99 75.05 60.75 C81.76 69.72 88.57 78.61 95.46 87.44 C114 111.17 114 111.17 114 113 C80.53 115.68 80.53 115.68 72.09 111.59 C67.86 107.97 65.56 103.39 63.24 98.4 C61.09 94.24 58.03 90.85 55 87.31 C53.96 86.04 52.91 84.77 51.88 83.49 C49.26 80.31 46.64 77.15 44 74 C42.71 75.27 41.41 76.54 40.12 77.81 C39.41 78.52 38.69 79.23 37.95 79.96 C34.26 83.83 33.73 86.19 33.59 91.42 C33.55 92.55 33.51 93.68 33.48 94.84 C33.44 96.28 33.41 97.71 33.38 99.19 C33.19 106.02 33.19 106.02 33 113 C22.11 113 11.22 113 0 113 C0 75.71 0 38.42 0 0 Z " fill="#44BA6B" transform="translate(1219,103)"/>
<path d="M0 0 C3.61 3.33 3.61 3.33 4.79 5.2 C4.73 8.17 3.83 9.16 1.79 11.32 C0.94 12.04 0.1 12.77 -0.77 13.52 C-1.67 14.29 -2.57 15.07 -3.5 15.87 C-4.39 16.64 -5.29 17.41 -6.21 18.2 C-6.97 18.92 -7.73 19.64 -8.51 20.38 C-9.19 21.02 -9.88 21.67 -10.58 22.33 C-11.19 22.91 -11.79 23.49 -12.42 24.09 C-14.21 25.2 -14.21 25.2 -16.26 25.03 C-18.74 23.98 -20.49 22.3 -22.5 20.54 C-30.84 14.01 -39.93 13.42 -50.21 14.2 C-58.02 15.99 -64.42 18.94 -68.86 25.73 C-73.96 34.88 -75.53 43.77 -73.08 54.02 C-70.08 63.25 -65.84 68.62 -57.21 73.2 C-47.45 77.41 -36.2 75.2 -26.21 73.2 C-26.21 62.97 -26.21 52.74 -26.21 42.2 C-16.64 42.2 -7.07 42.2 2.79 42.2 C2.79 58.04 2.79 73.88 2.79 90.2 C-20.26 102.5 -41.56 108.1 -67.21 101.2 C-82.41 96.34 -94.03 86.76 -102.02 73.02 C-109.72 57.89 -110.17 41.03 -105.46 24.93 C-100.86 11.26 -91.74 0.37 -79.21 -6.8 C-54.03 -19.04 -22.31 -18.16 0 0 Z " fill="#000000" transform="translate(458.20703125,114.796875)"/>
<path d="M0 0 C29.37 0 58.74 0 89 0 C89 8.25 89 16.5 89 25 C70.19 25 51.38 25 32 25 C32 30.94 32 36.88 32 43 C48.83 43 65.66 43 83 43 C83 51.25 83 59.5 83 68 C66.17 68 49.34 68 32 68 C32 74.6 32 81.2 32 88 C51.47 88 70.94 88 91 88 C91 96.25 91 104.5 91 113 C60.97 113 30.94 113 0 113 C0 75.71 0 38.42 0 0 Z " fill="#44BA6B" transform="translate(1095,103)"/>
<path d="M0 0 C1.39 0 2.78 0.01 4.17 0.02 C4.9 0.02 5.64 0.02 6.39 0.02 C8.73 0.03 11.08 0.04 13.42 0.05 C15 0.06 16.59 0.06 18.18 0.06 C22.07 0.08 25.96 0.09 29.86 0.11 C38.65 19.55 47.44 38.99 55.85 58.6 C59.05 66.02 62.32 73.39 65.66 80.75 C66.07 81.67 66.49 82.58 66.91 83.52 C68.97 88.07 71.04 92.61 73.12 97.15 C73.87 98.81 74.62 100.47 75.38 102.13 C75.73 102.89 76.08 103.65 76.44 104.44 C78.86 109.77 78.86 109.77 78.86 113.11 C67.64 113.11 56.42 113.11 44.86 113.11 C36.86 95.51 36.86 95.51 36.86 92.11 C21.02 92.11 5.18 92.11 -11.14 92.11 C-12.13 95.41 -13.12 98.71 -14.14 102.11 C-16.62 107.56 -16.62 107.56 -19.14 113.11 C-30.36 113.11 -41.58 113.11 -53.14 113.11 C-47.41 98.21 -47.41 98.21 -44.57 91.97 C-44.25 91.26 -43.93 90.55 -43.59 89.81 C-42.91 88.28 -42.22 86.76 -41.53 85.23 C-39.65 81.08 -37.78 76.92 -35.91 72.76 C-35.33 71.46 -35.33 71.46 -34.73 70.14 C-29.57 58.63 -24.52 47.08 -19.47 35.52 C-15.74 26.99 -11.98 18.47 -8.17 9.97 C-7.59 8.66 -7.59 8.66 -7 7.33 C-6.46 6.13 -6.46 6.13 -5.91 4.91 C-5.59 4.2 -5.27 3.49 -4.95 2.76 C-3.55 -0.1 -3.47 0.13 0 0 Z M11.86 34.11 C10.14 38.33 8.43 42.55 6.73 46.77 C6.15 48.2 5.57 49.64 4.98 51.07 C4.15 53.13 3.31 55.19 2.48 57.26 C2.22 57.9 1.96 58.54 1.69 59.2 C0.56 62.01 -0.14 64.05 -0.14 67.11 C8.44 67.11 17.02 67.11 25.86 67.11 C24.66 61.14 22.49 55.88 20.19 50.26 C19.42 48.36 18.66 46.46 17.89 44.55 C17.41 43.36 16.92 42.17 16.42 40.94 C15.98 39.85 15.54 38.75 15.08 37.63 C14.11 34.99 14.11 34.99 11.86 34.11 Z " fill="#000000" transform="translate(671.142822265625,102.886474609375)"/>
<path d="M0 0 C11.88 0 23.76 0 36 0 C45.68 23.33 55.35 46.66 65 70 C69.19 61.93 72.91 53.73 76.38 45.33 C77.21 43.33 78.04 41.33 78.87 39.33 C80.02 36.58 81.16 33.83 82.3 31.08 C84.93 24.75 87.59 18.44 90.25 12.12 C90.95 10.46 90.95 10.46 91.66 8.76 C92.3 7.24 92.3 7.24 92.95 5.7 C93.33 4.81 93.7 3.92 94.08 3.01 C95 1 95 1 96 0 C98.45 -0.09 100.87 -0.12 103.32 -0.1 C104.41 -0.1 104.41 -0.1 105.53 -0.09 C107.88 -0.09 110.22 -0.08 112.56 -0.06 C114.15 -0.06 115.73 -0.05 117.32 -0.05 C121.21 -0.04 125.11 -0.02 129 0 C123.48 14.1 117.6 28.01 111.53 41.88 C109.01 47.67 106.49 53.46 103.97 59.25 C103.47 60.4 102.96 61.56 102.44 62.75 C97.59 73.91 92.81 85.11 88.06 96.31 C87.7 97.18 87.33 98.04 86.95 98.93 C84.96 103.62 82.98 108.31 81 113 C70.11 113 59.22 113 48 113 C44.06 105.12 40.32 97.34 36.91 89.25 C36.22 87.61 36.22 87.61 35.51 85.95 C34.02 82.45 32.54 78.94 31.06 75.44 C29.52 71.8 27.98 68.16 26.43 64.52 C25.41 62.1 24.38 59.69 23.36 57.27 C18.74 46.37 14.08 35.5 9.4 24.63 C0 2.81 0 2.81 0 0 Z " fill="#000000" transform="translate(755,103)"/>
<path d="M0 0 C2.92 1.32 4.99 2.74 7.25 5.01 C8.18 5.94 8.18 5.94 9.13 6.88 C9.8 7.56 10.47 8.23 11.16 8.93 C11.87 9.64 12.58 10.35 13.31 11.09 C15.67 13.44 18.01 15.8 20.36 18.16 C21.99 19.8 23.62 21.43 25.25 23.07 C29.54 27.37 33.83 31.67 38.11 35.98 C42.49 40.37 46.87 44.76 51.25 49.15 C59.84 57.76 68.42 66.38 77 75 C75.18 78.94 72.62 81.63 69.55 84.64 C69.02 85.17 68.49 85.69 67.95 86.24 C66.26 87.91 64.57 89.58 62.88 91.25 C61.73 92.39 60.58 93.53 59.43 94.66 C56.63 97.45 53.82 100.23 51 103 C45.04 98.06 39.59 92.71 34.13 87.23 C33.21 86.3 32.28 85.38 31.33 84.43 C28.9 81.99 26.48 79.56 24.05 77.12 C21.56 74.62 19.08 72.13 16.59 69.64 C11.72 64.76 6.86 59.88 2 55 C-1.62 56.53 -3.92 58.68 -6.68 61.45 C-7.6 62.37 -8.52 63.29 -9.47 64.24 C-10.46 65.25 -11.46 66.25 -12.45 67.26 C-13.48 68.29 -14.5 69.32 -15.53 70.34 C-18.22 73.04 -20.91 75.75 -23.6 78.46 C-26.34 81.23 -29.09 83.99 -31.84 86.75 C-37.23 92.16 -42.62 97.58 -48 103 C-52.18 99.49 -56.21 95.91 -60.06 92.04 C-60.94 91.16 -61.82 90.27 -62.72 89.36 C-63.62 88.46 -64.52 87.56 -65.44 86.62 C-66.36 85.7 -67.28 84.77 -68.23 83.82 C-70.49 81.55 -72.75 79.27 -75 77 C-73.68 74.08 -72.26 72.01 -69.99 69.75 C-69.37 69.13 -68.75 68.51 -68.12 67.87 C-67.44 67.2 -66.77 66.53 -66.07 65.84 C-65.36 65.13 -64.65 64.42 -63.91 63.69 C-61.56 61.33 -59.2 58.99 -56.84 56.64 C-55.2 55.01 -53.57 53.38 -51.93 51.75 C-47.63 47.46 -43.33 43.17 -39.02 38.89 C-34.63 34.51 -30.24 30.13 -25.85 25.75 C-17.24 17.16 -8.62 8.58 0 0 Z " fill="#44BA6A" transform="translate(192,100)"/>
<path d="M0 0 C33.66 0 67.32 0 102 0 C102 8.58 102 17.16 102 26 C90.45 26 78.9 26 67 26 C67 54.71 67 83.42 67 113 C56.11 113 45.22 113 34 113 C34 84.29 34 55.58 34 26 C22.78 26 11.56 26 0 26 C0 17.42 0 8.84 0 0 Z " fill="#44BA6B" transform="translate(966,103)"/>
<path d="M0 0 C10.89 0 21.78 0 33 0 C33 37.29 33 74.58 33 113 C22.11 113 11.22 113 0 113 C0 75.71 0 38.42 0 0 Z " fill="#000000" transform="translate(905,103)"/>
<path d="M0 0 C3.94 1.82 6.63 4.38 9.64 7.45 C10.43 8.24 10.43 8.24 11.24 9.05 C12.91 10.74 14.58 12.43 16.25 14.12 C17.39 15.27 18.53 16.42 19.66 17.57 C22.45 20.37 25.23 23.18 28 26 C23.82 30.99 19.47 35.67 14.85 40.25 C14.19 40.9 13.54 41.56 12.86 42.23 C10.78 44.3 8.7 46.37 6.62 48.44 C5.21 49.85 3.79 51.26 2.37 52.68 C-1.08 56.12 -4.54 59.56 -8 63 C-12.18 59.49 -16.21 55.91 -20.06 52.04 C-20.94 51.16 -21.82 50.27 -22.72 49.36 C-23.62 48.46 -24.52 47.56 -25.44 46.62 C-26.36 45.7 -27.28 44.77 -28.23 43.82 C-30.49 41.55 -32.75 39.27 -35 37 C-33.64 33.95 -32.11 31.86 -29.74 29.52 C-29.08 28.86 -28.42 28.2 -27.74 27.52 C-27.03 26.81 -26.32 26.11 -25.59 25.39 C-24.49 24.3 -24.49 24.3 -23.37 23.19 C-21.05 20.87 -18.71 18.56 -16.38 16.25 C-14.79 14.68 -13.21 13.11 -11.63 11.54 C-7.76 7.68 -3.88 3.84 0 0 Z " fill="#000000" transform="translate(130,37)"/>
</svg>
